
        <svg xmlns="http://www.w3.org/2000/svg" xmlns:xlink="http://www.w3.org/1999/xlink" version="1.1" width="3157.48031496063" 
        height="983.6492702474127" viewBox="0 0 3157.48031496063 983.6492702474127">
			<rect fill="#fff" width="3157.48031496063" height="983.6492702474127"/>
			<g transform="scale(7.874015748031496) translate(10, 10)">
				<defs id="SvgjsDefs1938"></defs><g id="SvgjsG1939" featureKey="UqkkrJ-0" transform="matrix(0.9628586478035207,0,0,0.9628586478035207,-182.94295208592789,-129.9859174534753)" fill="#00b0f0"><path  xmlns="http://www.w3.org/2000/svg" d="M254.6,199.1c2.9,2.2,5.3,5.1,7,8.4c-2.2-1.4-4.9-2.3-7.7-2.3c-7.3,0-13.2,5.7-13.7,12.8c-0.5-7.2-6.4-12.8-13.7-12.8  c-2.9,0-5.5,0.8-7.7,2.3c1.7-3.3,4.1-6.2,7-8.4c-6,3.1-10.6,8.7-12.3,15.4c-0.5,4.1,0.2,6.9,2.7,10.5h47.9c2.6-3.7,3.1-4.9,2.8-10.5  C265.1,207.8,260.6,202.2,254.6,199.1z M277.9,185.9c-0.8-1.6-2-3.2-3.4-5.1c-3.9-5.3-8.7-12-8.7-20.4c0-11-5.3-17.1-9.7-20.3  C251,136.4,245,135,241,135c-0.1,0-0.1,0-0.2,0c-4,0-10.1,1.2-15.2,4.7c-3,2.1-5.4,4.7-7.1,7.8c-2,3.7-3,8-3,13  c0,8.1-5.2,14.7-9.3,19.9c-1.7,2-3.1,3.8-4,5.5c-4.3,7.7-3.2,13.6-2.2,16.4c1.1,2.9,2.9,5.1,5,5.9l1.1,0.5v-6.5  c0-5.5,1.8-13.7,6.7-13.7c5.2,0,8.4,1.8,10.7,3c0.7,0.3,1.3,0.7,1.9,0.9c0.6,0.3,1.2,0.4,1.7,0.4c1,0,1.9-0.5,2.7-1.6  c0.3-0.5,3.5-4.6,3.8-11v-0.6l-0.5-0.2c-5.1-2.1-8.6-6.9-9-12.4c8-4.3,15.1-11,20.7-19.3c2.3,5.1,6,9.1,10.5,11.2v7  c0,6-3.8,11.4-9.3,13.5l-0.6,0.2v0.6c0.2,6.4,3.5,10.5,3.8,10.9c0.8,1.1,1.7,1.6,2.7,1.6c1.1,0,2.1-0.6,3.5-1.3  c2.3-1.3,5.5-3,10.7-3c4.9,0,6.7,8.2,6.7,13.7v6.4l1.1-0.4c1.9-0.7,4.7-3,6.1-6.9C281.2,198,281.7,192.8,277.9,185.9z M246.4,169.1  c-1.2-0.4-2.3-1.2-3.2-2.3c-0.4-0.5-1-0.8-1.6-0.8c-0.7,0-1.4,0.4-1.8,1.1c-0.4-0.7-1-1.1-1.8-1.1c-0.7,0-1.2,0.4-1.6,0.9  c-0.5,0.5-1,1-1.5,1.4c-0.6,0.4-1.2,0.6-1.9,0.8c0.9,3.3,3.6,5.7,6.7,5.7C242.8,174.8,245.5,172.4,246.4,169.1z M238.1,169.9  c0.5-0.3,1.1-0.5,1.7-0.5c0.6,0,1.2,0.2,1.6,0.5c-0.1,0.9-0.8,1.5-1.6,1.5C239,171.4,238.4,170.8,238.1,169.9z"></path></g><g id="SvgjsG1940" featureKey="0kuQ8p-0" transform="matrix(2.5431117699633354,0,0,2.5431117699633354,106.42327099365878,12.148230513316628)" fill="#000000"><path d="M5.1 14.780000000000001 l2.08 0 l0 1.86 c0 2.24 -1.12 3.52 -3.28 3.52 s-3.28 -1.28 -3.28 -3.52 l0 -7.28 c0 -2.24 1.12 -3.52 3.28 -3.52 s3.28 1.28 3.28 3.52 l0 1.36 l-2.08 0 l0 -1.5 c0 -1 -0.44 -1.38 -1.14 -1.38 s-1.14 0.38 -1.14 1.38 l0 7.56 c0 1 0.44 1.36 1.14 1.36 s1.14 -0.36 1.14 -1.36 l0 -2 z M13.399999999999999 6 l2.24 14 l-2.22 0 l-0.38 -2.54 l-2.7 0 l-0.38 2.54 l-2.02 0 l2.24 -14 l3.22 0 z M11.66 8.48 l-1.04 7.08 l2.12 0 l-1.04 -7.08 l-0.04 0 z M21.36 20 l-2.7 -10.14 l-0.04 0 l0 10.14 l-1.98 0 l0 -14 l2.76 0 l2.22 8.38 l0.04 0 l0 -8.38 l1.96 0 l0 14 l-2.26 0 z M25.2 20 l0 -14 l3.48 0 c2.2 0 3.28 1.22 3.28 3.46 l0 7.08 c0 2.24 -1.08 3.46 -3.28 3.46 l-3.48 0 z M28.64 8 l-1.24 0 l0 10 l1.24 0 c0.7 0 1.12 -0.36 1.12 -1.36 l0 -7.28 c0 -1 -0.42 -1.36 -1.12 -1.36 z M35.120000000000005 20 l0 -4.64 l-2.78 -9.36 l2.3 0 l1.66 6.38 l0.04 0 l1.66 -6.38 l2.1 0 l-2.78 9.36 l0 4.64 l-2.2 0 z M43.98000000000001 14.2 l0 -2 l3.08 0 l0 4.44 c0 2.24 -1.12 3.52 -3.28 3.52 s-3.28 -1.28 -3.28 -3.52 l0 -7.28 c0 -2.24 1.12 -3.52 3.28 -3.52 s3.28 1.28 3.28 3.52 l0 1.36 l-2.08 0 l0 -1.5 c0 -1 -0.44 -1.38 -1.14 -1.38 s-1.14 0.38 -1.14 1.38 l0 7.56 c0 1 0.44 1.36 1.14 1.36 s1.14 -0.36 1.14 -1.36 l0 -2.58 l-1 0 z M48.480000000000004 20 l0 -14 l2.2 0 l0 14 l-2.2 0 z M59.120000000000005 20 l-2.24 0 c-0.12 -0.36 -0.2 -0.58 -0.2 -1.72 l0 -2.2 c0 -1.3 -0.44 -1.78 -1.44 -1.78 l-0.76 0 l0 5.7 l-2.2 0 l0 -14 l3.32 0 c2.28 0 3.26 1.06 3.26 3.22 l0 1.1 c0 1.44 -0.46 2.36 -1.44 2.82 l0 0.04 c1.1 0.46 1.46 1.5 1.46 2.96 l0 2.16 c0 0.68 0.02 1.18 0.24 1.7 z M55.540000000000006 8 l-1.06 0 l0 4.3 l0.86 0 c0.82 0 1.32 -0.36 1.32 -1.48 l0 -1.38 c0 -1 -0.34 -1.44 -1.12 -1.44 z M60.32 20 l0 -14 l2.2 0 l0 12 l3.62 0 l0 2 l-5.82 0 z M66.82 9.36 c0 -2.24 1.1 -3.52 3.24 -3.52 s3.24 1.28 3.24 3.52 l0 0.44 l-2.08 0 l0 -0.58 c0 -1 -0.4 -1.38 -1.1 -1.38 s-1.1 0.38 -1.1 1.38 c0 1.02 0.44 1.78 1.88 3.04 c1.84 1.62 2.42 2.78 2.42 4.38 c0 2.24 -1.12 3.52 -3.28 3.52 s-3.28 -1.28 -3.28 -3.52 l0 -0.86 l2.08 0 l0 1 c0 1 0.44 1.36 1.14 1.36 s1.14 -0.36 1.14 -1.36 c0 -1.02 -0.44 -1.78 -1.88 -3.04 c-1.84 -1.62 -2.42 -2.78 -2.42 -4.38 z M78.88 14.780000000000001 l2.08 0 l0 1.86 c0 2.24 -1.12 3.52 -3.28 3.52 s-3.28 -1.28 -3.28 -3.52 l0 -7.28 c0 -2.24 1.12 -3.52 3.28 -3.52 s3.28 1.28 3.28 3.52 l0 1.36 l-2.08 0 l0 -1.5 c0 -1 -0.44 -1.38 -1.14 -1.38 s-1.14 0.38 -1.14 1.38 l0 7.56 c0 1 0.44 1.36 1.14 1.36 s1.14 -0.36 1.14 -1.36 l0 -2 z M82.3 20 l0 -14 l2.2 0 l0 12 l3.62 0 l0 2 l-5.82 0 z M88.98 6 l2.2 0 l0 10.8 c0 1 0.44 1.36 1.14 1.36 s1.14 -0.36 1.14 -1.36 l0 -10.8 l2.08 0 l0 10.66 c0 2.24 -1.12 3.52 -3.28 3.52 s-3.28 -1.28 -3.28 -3.52 l0 -10.66 z M100.36 6 c2.28 0 3.26 1.06 3.26 3.22 l0 0.5 c0 1.44 -0.44 2.34 -1.42 2.8 l0 0.04 c1.18 0.46 1.64 1.5 1.64 2.98 l0 1.14 c0 2.16 -1.14 3.32 -3.34 3.32 l-3.46 0 l0 -14 l3.32 0 z M100.22 13.7 l-0.98 0 l0 4.3 l1.26 0 c0.74 0 1.14 -0.34 1.14 -1.38 l0 -1.22 c0 -1.3 -0.42 -1.7 -1.42 -1.7 z M100.3 8 l-1.06 0 l0 3.7 l0.86 0 c0.82 0 1.32 -0.36 1.32 -1.48 l0 -0.78 c0 -1 -0.34 -1.44 -1.12 -1.44 z"></path></g><g id="SvgjsG1941" featureKey="Nh6iBa-0" transform="matrix(0.37333987725145423,0,0,0.37333987725145423,107.70132811600106,70.81969559395134)" fill="#000000"><path d="M0.8 20 l0 -14 l2.2 0 l0 14 l-2.2 0 z M18.3279375 20 l-2.7 -10.14 l-0.04 0 l0 10.14 l-1.98 0 l0 -14 l2.76 0 l2.22 8.38 l0.04 0 l0 -8.38 l1.96 0 l0 14 l-2.26 0 z M31.195875 20 l0 -14 l3.48 0 c2.2 0 3.28 1.22 3.28 3.46 l0 7.08 c0 2.24 -1.08 3.46 -3.28 3.46 l-3.48 0 z M34.635875 8 l-1.24 0 l0 10 l1.24 0 c0.7 0 1.12 -0.36 1.12 -1.36 l0 -7.28 c0 -1 -0.42 -1.36 -1.12 -1.36 z M48.2838125 6 l2.2 0 l0 10.8 c0 1 0.44 1.36 1.14 1.36 s1.14 -0.36 1.14 -1.36 l0 -10.8 l2.08 0 l0 10.66 c0 2.24 -1.12 3.52 -3.28 3.52 s-3.28 -1.28 -3.28 -3.52 l0 -10.66 z M65.37175 20 l0 -14 l2.2 0 l0 12 l3.62 0 l0 2 l-5.82 0 z M84.47968750000001 14.2 l0 -2 l3.08 0 l0 4.44 c0 2.24 -1.12 3.52 -3.28 3.52 s-3.28 -1.28 -3.28 -3.52 l0 -7.28 c0 -2.24 1.12 -3.52 3.28 -3.52 s3.28 1.28 3.28 3.52 l0 1.36 l-2.08 0 l0 -1.5 c0 -1 -0.44 -1.38 -1.14 -1.38 s-1.14 0.38 -1.14 1.38 l0 7.56 c0 1 0.44 1.36 1.14 1.36 s1.14 -0.36 1.14 -1.36 l0 -2.58 l-1 0 z M100.20762500000002 8 l0 3.9 l3.02 0 l0 2 l-3.02 0 l0 4.1 l3.8 0 l0 2 l-6 0 l0 -14 l6 0 l0 2 l-3.8 0 z M126.52350000000003 20 l0 -14 l2.2 0 l0 14 l-2.2 0 z M144.05143750000002 20 l-2.7 -10.14 l-0.04 0 l0 10.14 l-1.98 0 l0 -14 l2.76 0 l2.22 8.38 l0.04 0 l0 -8.38 l1.96 0 l0 14 l-2.26 0 z M168.76731250000003 9.36 c0 -2.24 1.1 -3.52 3.24 -3.52 s3.24 1.28 3.24 3.52 l0 0.44 l-2.08 0 l0 -0.58 c0 -1 -0.4 -1.38 -1.1 -1.38 s-1.1 0.38 -1.1 1.38 c0 1.02 0.44 1.78 1.88 3.04 c1.84 1.62 2.42 2.78 2.42 4.38 c0 2.24 -1.12 3.52 -3.28 3.52 s-3.28 -1.28 -3.28 -3.52 l0 -0.86 l2.08 0 l0 1 c0 1 0.44 1.36 1.14 1.36 s1.14 -0.36 1.14 -1.36 c0 -1.02 -0.44 -1.78 -1.88 -3.04 c-1.84 -1.62 -2.42 -2.78 -2.42 -4.38 z M191.23525 20 l-0.78 -7.46 l-0.04 0 l-0.78 7.46 l-3.02 0 l-1.56 -14 l2.14 0 l1.16 11.04 l0.04 0 l1.04 -11.04 l2.12 0 l1.08 11.12 l0.04 0 l1.12 -11.12 l1.92 0 l-1.56 14 l-2.92 0 z M208.04318750000002 8 l0 3.9 l3.02 0 l0 2 l-3.02 0 l0 4.1 l3.8 0 l0 2 l-6 0 l0 -14 l6 0 l0 2 l-3.8 0 z M224.431125 8 l0 3.9 l3.02 0 l0 2 l-3.02 0 l0 4.1 l3.8 0 l0 2 l-6 0 l0 -14 l6 0 l0 2 l-3.8 0 z M237.9790625 8 l0 -2 l6.8 0 l0 2 l-2.3 0 l0 12 l-2.2 0 l0 -12 l-2.3 0 z M269.9349375 6 l1.6 9.94 l0.04 0 l1.48 -9.94 l3.06 0 l0 14 l-2.08 0 l0 -10.04 l-0.04 0 l-1.48 10.04 l-2.08 0 l-1.6 -9.9 l-0.04 0 l0 9.9 l-1.92 0 l0 -14 l3.06 0 z M288.762875 9.22 l0 7.56 c0 1 0.44 1.38 1.14 1.38 s1.14 -0.38 1.14 -1.38 l0 -7.56 c0 -1 -0.44 -1.38 -1.14 -1.38 s-1.14 0.38 -1.14 1.38 z M286.562875 16.64 l0 -7.28 c0 -2.24 1.18 -3.52 3.34 -3.52 s3.34 1.28 3.34 3.52 l0 7.28 c0 2.24 -1.18 3.52 -3.34 3.52 s-3.34 -1.28 -3.34 -3.52 z M306.7308125 6 l1.6 9.94 l0.04 0 l1.48 -9.94 l3.06 0 l0 14 l-2.08 0 l0 -10.04 l-0.04 0 l-1.48 10.04 l-2.08 0 l-1.6 -9.9 l-0.04 0 l0 9.9 l-1.92 0 l0 -14 l3.06 0 z M325.73875000000004 8 l0 3.9 l3.02 0 l0 2 l-3.02 0 l0 4.1 l3.8 0 l0 2 l-6 0 l0 -14 l6 0 l0 2 l-3.8 0 z M344.62668750000006 20 l-2.7 -10.14 l-0.04 0 l0 10.14 l-1.98 0 l0 -14 l2.76 0 l2.22 8.38 l0.04 0 l0 -8.38 l1.96 0 l0 14 l-2.26 0 z M356.8546250000001 8 l0 -2 l6.8 0 l0 2 l-2.3 0 l0 12 l-2.2 0 l0 -12 l-2.3 0 z M373.3625625000001 9.36 c0 -2.24 1.1 -3.52 3.24 -3.52 s3.24 1.28 3.24 3.52 l0 0.44 l-2.08 0 l0 -0.58 c0 -1 -0.4 -1.38 -1.1 -1.38 s-1.1 0.38 -1.1 1.38 c0 1.02 0.44 1.78 1.88 3.04 c1.84 1.62 2.42 2.78 2.42 4.38 c0 2.24 -1.12 3.52 -3.28 3.52 s-3.28 -1.28 -3.28 -3.52 l0 -0.86 l2.08 0 l0 1 c0 1 0.44 1.36 1.14 1.36 s1.14 -0.36 1.14 -1.36 c0 -1.02 -0.44 -1.78 -1.88 -3.04 c-1.84 -1.62 -2.42 -2.78 -2.42 -4.38 z M407.1584375000001 6 l2.24 14 l-2.22 0 l-0.38 -2.54 l-2.7 0 l-0.38 2.54 l-2.02 0 l2.24 -14 l3.22 0 z M405.4184375000001 8.48 l-1.04 7.08 l2.12 0 l-1.04 -7.08 l-0.04 0 z M424.1463750000001 20 l-2.7 -10.14 l-0.04 0 l0 10.14 l-1.98 0 l0 -14 l2.76 0 l2.22 8.38 l0.04 0 l0 -8.38 l1.96 0 l0 14 l-2.26 0 z M437.01431250000013 20 l0 -14 l3.48 0 c2.2 0 3.28 1.22 3.28 3.46 l0 7.08 c0 2.24 -1.08 3.46 -3.28 3.46 l-3.48 0 z M440.4543125000001 8 l-1.24 0 l0 10 l1.24 0 c0.7 0 1.12 -0.36 1.12 -1.36 l0 -7.28 c0 -1 -0.42 -1.36 -1.12 -1.36 z M468.53018750000007 8 l0 3.9 l3.02 0 l0 2 l-3.02 0 l0 4.1 l3.8 0 l0 2 l-6 0 l0 -14 l6 0 l0 2 l-3.8 0 z M488.0181250000001 6 l2.04 0 l-2.3 6.8 l2.46 7.2 l-2.32 0 l-1.78 -5.54 l-0.04 0 l-1.8 5.54 l-2.06 0 l2.46 -7.2 l-2.3 -6.8 l2.28 0 l1.64 5.16 l0.04 0 z M504.3460625000001 14.780000000000001 l2.08 0 l0 1.86 c0 2.24 -1.12 3.52 -3.28 3.52 s-3.28 -1.28 -3.28 -3.52 l0 -7.28 c0 -2.24 1.12 -3.52 3.28 -3.52 s3.28 1.28 3.28 3.52 l0 1.36 l-2.08 0 l0 -1.5 c0 -1 -0.44 -1.38 -1.14 -1.38 s-1.14 0.38 -1.14 1.38 l0 7.56 c0 1 0.44 1.36 1.14 1.36 s1.14 -0.36 1.14 -1.36 l0 -2 z M516.794 20 l0 -14 l2.2 0 l0 12 l3.62 0 l0 2 l-5.82 0 z M532.5019375 6 l2.2 0 l0 10.8 c0 1 0.44 1.36 1.14 1.36 s1.14 -0.36 1.14 -1.36 l0 -10.8 l2.08 0 l0 10.66 c0 2.24 -1.12 3.52 -3.28 3.52 s-3.28 -1.28 -3.28 -3.52 l0 -10.66 z M549.309875 9.36 c0 -2.24 1.1 -3.52 3.24 -3.52 s3.24 1.28 3.24 3.52 l0 0.44 l-2.08 0 l0 -0.58 c0 -1 -0.4 -1.38 -1.1 -1.38 s-1.1 0.38 -1.1 1.38 c0 1.02 0.44 1.78 1.88 3.04 c1.84 1.62 2.42 2.78 2.42 4.38 c0 2.24 -1.12 3.52 -3.28 3.52 s-3.28 -1.28 -3.28 -3.52 l0 -0.86 l2.08 0 l0 1 c0 1 0.44 1.36 1.14 1.36 s1.14 -0.36 1.14 -1.36 c0 -1.02 -0.44 -1.78 -1.88 -3.04 c-1.84 -1.62 -2.42 -2.78 -2.42 -4.38 z M566.0978125 20 l0 -14 l2.2 0 l0 14 l-2.2 0 z M580.5657500000001 6 l1.66 11.42 l0.04 0 l1.66 -11.42 l2.02 0 l-2.16 14 l-3.28 0 l-2.16 -14 l2.22 0 z M598.1936875 8 l0 3.9 l3.02 0 l0 2 l-3.02 0 l0 4.1 l3.8 0 l0 2 l-6 0 l0 -14 l6 0 l0 2 l-3.8 0 z M628.8095625000001 14.780000000000001 l2.08 0 l0 1.86 c0 2.24 -1.12 3.52 -3.28 3.52 s-3.28 -1.28 -3.28 -3.52 l0 -7.28 c0 -2.24 1.12 -3.52 3.28 -3.52 s3.28 1.28 3.28 3.52 l0 1.36 l-2.08 0 l0 -1.5 c0 -1 -0.44 -1.38 -1.14 -1.38 s-1.14 0.38 -1.14 1.38 l0 7.56 c0 1 0.44 1.36 1.14 1.36 s1.14 -0.36 1.14 -1.36 l0 -2 z M643.2775000000001 9.22 l0 7.56 c0 1 0.44 1.38 1.14 1.38 s1.14 -0.38 1.14 -1.38 l0 -7.56 c0 -1 -0.44 -1.38 -1.14 -1.38 s-1.14 0.38 -1.14 1.38 z M641.0775000000001 16.64 l0 -7.28 c0 -2.24 1.18 -3.52 3.34 -3.52 s3.34 1.28 3.34 3.52 l0 7.28 c0 2.24 -1.18 3.52 -3.34 3.52 s-3.34 -1.28 -3.34 -3.52 z M662.9054375000001 20 l-2.7 -10.14 l-0.04 0 l0 10.14 l-1.98 0 l0 -14 l2.76 0 l2.22 8.38 l0.04 0 l0 -8.38 l1.96 0 l0 14 l-2.26 0 z M675.133375 8 l0 -2 l6.8 0 l0 2 l-2.3 0 l0 12 l-2.2 0 l0 -12 l-2.3 0 z M694.1213125 8 l0 3.9 l3.02 0 l0 2 l-3.02 0 l0 4.1 l3.8 0 l0 2 l-6 0 l0 -14 l6 0 l0 2 l-3.8 0 z M713.0092500000001 20 l-2.7 -10.14 l-0.04 0 l0 10.14 l-1.98 0 l0 -14 l2.76 0 l2.22 8.38 l0.04 0 l0 -8.38 l1.96 0 l0 14 l-2.26 0 z M725.2371875 8 l0 -2 l6.8 0 l0 2 l-2.3 0 l0 12 l-2.2 0 l0 -12 l-2.3 0 z"></path></g>
			</g>
		</svg>
	